<svg fill="none" version="1.1" id="svg9" sodipodi:docname="myiveco.svg" inkscape:version="1.3 (0e150ed6c4, 2023-07-21)" xmlns:inkscape="http://www.inkscape.org/namespaces/inkscape" xmlns:sodipodi="http://sodipodi.sourceforge.net/DTD/sodipodi-0.dtd" xmlns="http://www.w3.org/2000/svg" xmlns:svg="http://www.w3.org/2000/svg" viewBox="0 0 1000 161.85">
  <defs id="defs9"/>
  <sodipodi:namedview id="namedview9" pagecolor="#ffffff" bordercolor="#000000" borderopacity="0.25" inkscape:showpageshadow="2" inkscape:pageopacity="0.0" inkscape:pagecheckerboard="0" inkscape:deskcolor="#d1d1d1" inkscape:zoom="2.5878594" inkscape:cx="127.90494" inkscape:cy="140.07716" inkscape:window-width="1920" inkscape:window-height="1017" inkscape:window-x="-8" inkscape:window-y="-8" inkscape:window-maximized="1" inkscape:current-layer="svg9"/>
  <path d="m 843.12473,155.98381 c -30.42093,0 -55.17016,-20.44364 -55.17016,-45.57282 V 45.57292 C 787.95457,20.443594 812.7038,0 843.12473,0 H 944.82984 C 975.25077,0 1000,20.443594 1000,45.57292 v 64.83807 c 0,25.12918 -24.74923,45.57282 -55.17016,45.57282 z M 833.67356,37.489525 c -0.63074,0 -1.14134,0.510803 -1.14134,1.138395 v 78.63417 c 0,0.62823 0.5106,1.13884 1.14134,1.13884 h 119.90662 c 0.63074,0 1.14134,-0.51061 1.14134,-1.13884 V 38.62792 c 0,-0.627592 -0.5106,-1.138395 -1.14134,-1.138395 z" fill="#000000" id="path1" style="stroke-width: 5.00591px; --darkreader-inline-fill: #000000;" data-darkreader-inline-fill=""/>
  <path d="M 520.74901,155.98482 H 394.03034 c -30.42192,0 -55.17115,-20.44364 -55.17115,-45.57282 V 45.550893 c 0,-25.129024 24.74923,-45.57261865 55.17115,-45.54743892 h 126.09292 l 0.91609,-0.00190225 c 1.92727,0 3.49412,1.56454767 3.49412,3.49452707 V 3.6328904 34.003508 c 0,1.929979 -1.56685,3.494528 -3.49412,3.494528 l -0.29535,-0.0018 -135.98611,0.0021 c -0.73085,0 -1.32606,0.594902 -1.32606,1.326015 v 78.251009 c 0,0.73136 0.59521,1.32607 1.32606,1.32607 l 135.86596,0.002 0.4155,0.001 c 1.92727,0 3.49412,1.56485 3.49412,3.49463 v 0.0651 l -0.015,30.49901 0.005,0.0285 c 0,1.92978 -1.55684,3.49462 -3.48411,3.49462 z" fill="#000000" id="path2" style="stroke-width: 5.00591px; --darkreader-inline-fill: #000000;" data-darkreader-inline-fill=""/>
  <path d="M 747.5819,155.98482 H 620.85723 c -30.42093,0 -55.17016,-20.44364 -55.17016,-45.57282 V 45.550893 c 0,-25.129024 24.74923,-45.57261865 55.17016,-45.54743892 h 126.09392 l 0.91608,-0.00190225 c 1.93228,0 3.49413,1.56454767 3.49413,3.49452707 V 3.6328904 34.003508 c 0,1.929979 -1.56185,3.494528 -3.49413,3.494528 l -0.29034,-0.0018 -135.99061,0.0021 c -0.73086,0 -1.32656,0.594902 -1.32656,1.326015 v 78.251009 c 0,0.73136 0.5957,1.32607 1.32656,1.32607 l 135.86546,0.002 0.41549,0.001 c 1.93228,0 3.49413,1.56485 3.49413,3.49463 v 0.0651 l -0.015,30.49901 0.005,0.0285 c 0,1.92978 -1.55184,3.49462 -3.48412,3.49462 z" fill="#000000" id="path3" style="stroke-width: 5.00591px; --darkreader-inline-fill: #000000;" data-darkreader-inline-fill=""/>
  <path d="M 521.40478,95.446823 H 408.0469 c -1.13234,0 -2.05893,-0.926594 -2.05893,-2.058936 V 62.911894 c 0,-1.132838 0.92659,-2.058932 2.05893,-2.058932 h 113.35788 c 1.13134,0 2.05742,0.926094 2.05742,2.058932 v 30.475993 c 0,1.132337 -0.92608,2.058936 -2.05742,2.058936 z" fill="#1554ff" id="path4" style="stroke-width: 5.00591px; --darkreader-inline-fill: #0034bf;" data-darkreader-inline-fill=""/>
  <path d="m 195.20103,161.83922 c -17.46813,0 -33.35289,-7.94437 -41.45496,-20.73247 L 153.27702,140.32181 74.323771,4.6302684 C 73.798652,3.6941127 73.809164,2.6078799 74.339791,1.7029612 74.954016,0.6542727 76.162944,0.00305361 77.494016,0.00305361 h 41.660704 c 1.35861,0 2.57755,0.66999125 3.18225,1.74856499 L 193.6492,123.81182 c 0.14967,0.17622 0.5957,0.56467 1.6179,0.58619 1.16838,-0.009 1.49577,-0.54514 1.65346,-0.80295 L 274.33048,1.6335292 c 0.60722,-0.99732784 1.80463,-1.63047559 3.11218,-1.63047559 h 42.31197 c 1.3566,0 2.57604,0.66999125 3.18225,1.74856499 0.52412,0.9320008 0.5031,2.036305 -0.0566,2.9543893 L 237.0099,140.56761 c -7.91084,12.99585 -23.78809,21.15348 -41.42242,21.27062 z" fill="#000000" id="path5" style="stroke-width: 5.00591px; --darkreader-inline-fill: #000000;" data-darkreader-inline-fill=""/>
  <path d="M 41.467969,155.98681 H 3.4945721 C 1.5725722,155.98681 0,154.41396 0,152.49219 V 3.496129 C 0,1.574109 1.5725722,0.00155183 3.4945721,0.00155183 H 41.467969 c 1.92202,0 3.494577,1.57255717 3.494577,3.49457717 V 152.49219 c 0,1.92177 -1.572557,3.49462 -3.494577,3.49462 z" fill="#000000" id="path6" style="stroke-width: 5.00591px; --darkreader-inline-fill: #000000;" data-darkreader-inline-fill=""/>
</svg>